<svg width="45" height="45" viewBox="0 0 45 45" fill="none" xmlns="http://www.w3.org/2000/svg">
<path d="M37.0313 4.3688C36.8538 4.17221 36.6368 4.01543 36.3944 3.90878C36.152 3.80214 35.8898 3.74804 35.625 3.75005H9.375C9.11019 3.74804 8.84797 3.80214 8.60559 3.90878C8.3632 4.01543 8.14616 4.17221 7.96875 4.3688C7.79181 4.56568 7.65856 4.79779 7.57776 5.04986C7.49697 5.30193 7.47047 5.56825 7.5 5.8313L10.875 36.2438C11.0279 37.626 11.6874 38.9025 12.7262 39.827C13.765 40.7515 15.1094 41.2585 16.5 41.2501H28.5375C29.9281 41.2585 31.2725 40.7515 32.3113 39.827C33.3501 38.9025 34.0096 37.626 34.1625 36.2438L37.5 5.8313C37.5295 5.56825 37.503 5.30193 37.4222 5.04986C37.3414 4.79779 37.2082 4.56568 37.0313 4.3688ZM30.375 35.8313C30.324 36.292 30.1042 36.7175 29.7579 37.0257C29.4117 37.3339 28.9635 37.5029 28.5 37.5001H16.4812C16.0177 37.5029 15.5696 37.3339 15.2233 37.0257C14.8771 36.7175 14.6572 36.292 14.6062 35.8313L12.7125 18.7501H32.2875L30.375 35.8313ZM32.7 15.0001H12.3L11.475 7.50005H33.525L32.7 15.0001Z" fill="black"/>
<path d="M33 18H12C12.7179 23.045 14 33.5 14.1538 35.2973C14.3014 37.0207 15.5897 37.8198 16.3077 38H29.2308C30.5231 38 31.2051 36.1982 31.3846 35.2973L33 18Z" fill="#407BFF"/>
</svg>
